<?xml version="1.0" standalone="no"?>
<!DOCTYPE svg PUBLIC "-//W3C//DTD SVG 20010904//EN"
 "http://www.w3.org/TR/2001/REC-SVG-20010904/DTD/svg10.dtd">
<svg version="1.0" xmlns="http://www.w3.org/2000/svg"
 width="358.000000pt" height="340.000000pt" viewBox="0 0 358.000000 340.000000"
 preserveAspectRatio="xMidYMid meet">
<g transform="translate(0.000000,340.000000) scale(0.100000,-0.100000)"
fill="#000000" stroke="none">
<path d="M2535 3360 c3 -5 8 -10 11 -10 2 0 4 5 4 10 0 6 -5 10 -11 10 -5 0
-7 -4 -4 -10z"/>
<path d="M3300 3319 c0 -5 5 -7 10 -4 6 3 10 8 10 11 0 2 -4 4 -10 4 -5 0 -10
-5 -10 -11z"/>
<path d="M435 3270 c-3 -5 -1 -10 4 -10 6 0 11 5 11 10 0 6 -2 10 -4 10 -3 0
-8 -4 -11 -10z"/>
<path d="M1741 3257 c-13 -21 -12 -21 5 -5 10 10 16 20 13 22 -3 3 -11 -5 -18
-17z"/>
<path d="M711 3224 c0 -11 3 -14 6 -6 3 7 2 16 -1 19 -3 4 -6 -2 -5 -13z"/>
<path d="M2221 3194 c0 -11 3 -14 6 -6 3 7 2 16 -1 19 -3 4 -6 -2 -5 -13z"/>
<path d="M3175 3160 c3 -5 8 -10 11 -10 2 0 4 5 4 10 0 6 -5 10 -11 10 -5 0
-7 -4 -4 -10z"/>
<path d="M1535 3150 c-105 -15 -184 -42 -295 -97 -436 -218 -768 -748 -796
-1271 -14 -255 66 -513 246 -790 42 -65 102 -135 198 -231 190 -191 359 -305
575 -385 159 -60 228 -71 432 -71 167 0 187 2 280 28 334 95 561 238 722 457
70 96 128 230 160 375 25 109 21 308 -7 420 -76 303 -292 494 -595 525 -103
11 -242 -2 -264 -25 -14 -13 -13 -15 5 -15 11 0 26 6 32 12 20 20 242 16 327
-6 119 -31 225 -91 306 -176 54 -56 123 -166 121 -193 0 -9 4 -15 9 -11 6 3 7
-5 4 -23 -5 -21 -4 -24 4 -13 9 12 11 10 11 -10 0 -15 4 -30 9 -35 12 -13 39
-208 36 -260 -11 -164 -29 -254 -72 -360 -42 -103 -53 -121 -65 -104 -8 11 -8
9 -4 -5 4 -10 1 -25 -6 -33 -7 -8 -13 -22 -14 -30 -2 -8 -12 -22 -23 -30 -12
-8 -21 -19 -21 -25 0 -6 -18 -29 -40 -50 -22 -22 -40 -44 -40 -48 0 -5 -7 -7
-15 -4 -11 5 -13 2 -9 -10 3 -9 1 -16 -5 -16 -6 0 -21 -10 -33 -22 -11 -11
-33 -21 -47 -22 -17 -1 -26 -7 -26 -18 0 -9 -12 -26 -27 -37 -29 -23 -43 -27
-32 -9 4 7 3 8 -5 4 -6 -4 -9 -11 -6 -15 2 -5 -7 -13 -21 -20 -31 -14 -37 -14
-28 1 4 7 3 8 -5 4 -6 -4 -9 -12 -6 -17 4 -5 -2 -12 -12 -15 -22 -7 -40 -15
-123 -52 -63 -29 -154 -60 -195 -67 -192 -34 -217 -37 -325 -32 -189 8 -432
70 -491 126 -13 12 -29 19 -35 17 -7 -3 -20 2 -31 11 -17 14 -17 14 0 9 11 -4
16 -2 12 5 -4 6 -13 8 -21 5 -19 -7 -67 11 -60 23 3 5 -2 8 -11 7 -10 0 -18 4
-18 11 0 6 -4 15 -9 20 -5 5 -6 3 -2 -4 12 -21 -7 -15 -36 11 -14 14 -28 23
-30 20 -3 -2 -15 7 -28 21 -13 14 -30 25 -38 25 -8 0 -12 6 -8 15 3 8 1 15 -5
15 -6 0 -7 5 -3 12 4 7 3 8 -5 4 -6 -4 -9 -12 -6 -17 3 -5 -1 -6 -9 -3 -9 3
-12 12 -9 21 4 10 2 14 -4 10 -6 -4 -14 0 -17 8 -3 8 -11 14 -18 13 -7 -2 -12
3 -10 10 1 6 -2 11 -7 10 -10 -4 -97 84 -93 95 1 4 -1 6 -5 6 -20 -3 -26 2
-13 11 11 7 12 10 2 10 -18 0 -43 26 -34 35 4 5 2 5 -4 2 -6 -4 -20 3 -30 15
-17 19 -17 21 -2 15 10 -3 20 -1 24 5 4 6 3 9 -2 5 -16 -9 -47 21 -40 39 5 14
4 15 -9 4 -13 -11 -14 -10 -10 3 4 8 1 18 -6 23 -8 4 -10 3 -5 -4 4 -7 4 -12
-1 -12 -13 0 -47 64 -44 85 2 17 0 17 -8 5 -8 -10 -11 -11 -11 -2 0 7 -18 41
-39 77 -69 112 -122 264 -146 415 -14 92 -13 293 4 375 30 152 62 259 73 243
5 -8 6 -2 2 15 -4 16 -1 36 8 50 8 12 22 43 32 70 10 26 22 45 26 42 5 -3 12
0 16 6 4 8 3 9 -4 5 -19 -12 -14 9 13 48 13 20 22 36 19 36 -3 0 3 13 12 29
10 17 21 28 26 25 4 -3 5 3 1 12 -5 13 -3 15 7 9 8 -5 11 -4 7 2 -7 10 74 130
97 145 6 4 11 12 11 18 0 13 173 190 186 190 6 0 8 -4 5 -8 -3 -5 2 -9 10 -9
10 0 11 4 4 11 -12 12 -13 29 -1 22 5 -3 11 1 15 9 3 8 13 15 21 15 10 0 13 5
9 12 -5 8 -2 9 9 5 10 -4 16 -2 14 6 -1 7 6 11 15 11 10 -1 16 2 13 6 -3 5 4
11 15 15 11 3 20 11 20 16 0 6 10 8 23 4 17 -5 19 -4 7 4 -13 9 -13 11 1 11 9
0 28 9 42 21 15 11 36 22 48 24 11 2 26 8 33 13 20 15 139 51 206 61 229 37
600 -33 857 -161 34 -17 60 -35 57 -39 -3 -5 1 -6 8 -4 15 6 84 -40 71 -47 -4
-3 -2 -3 6 -1 13 3 141 -82 141 -94 0 -3 -6 0 -14 6 -8 7 -16 8 -19 4 -3 -5 6
-13 19 -20 13 -6 22 -7 18 -2 -15 24 17 3 71 -47 33 -30 74 -66 92 -79 17 -14
40 -42 50 -62 10 -21 24 -37 31 -36 6 2 12 -4 12 -12 0 -18 -11 -19 -30 -2 -8
6 -7 3 3 -9 19 -23 14 -35 -11 -27 -13 4 -14 3 -3 -5 11 -8 11 -11 0 -18 -7
-4 -14 -3 -17 4 -2 6 -9 9 -15 6 -7 -2 -33 16 -57 41 -28 29 -37 43 -25 39 11
-4 18 -5 15 -3 -41 35 -54 43 -41 27 21 -28 -1 -21 -42 13 -25 20 -36 37 -32
47 4 12 3 12 -9 3 -9 -7 -17 -8 -20 -2 -3 5 -3 11 1 14 5 2 3 3 -3 1 -5 -1
-20 9 -33 22 -13 13 -27 24 -32 24 -5 0 -9 5 -9 11 0 5 5 7 10 4 6 -3 10 -1
10 5 0 7 -7 9 -16 6 -13 -5 -65 22 -84 44 -3 3 -26 16 -51 30 -27 14 -45 29
-42 36 3 9 -3 11 -19 7 -19 -4 -20 -3 -8 7 13 10 13 11 -2 6 -24 -7 -50 3 -41
17 3 6 1 7 -5 3 -7 -4 -40 6 -75 23 -34 16 -74 32 -89 35 -16 4 -28 10 -28 15
0 5 -8 7 -19 4 -10 -3 -22 0 -25 6 -8 13 -36 3 -36 -13 0 -22 47 -106 55 -98
5 4 5 -1 2 -11 -4 -10 -3 -16 2 -12 14 8 66 -137 87 -240 11 -54 18 -133 18
-200 0 -123 -21 -278 -36 -269 -6 4 -4 -4 2 -17 l13 -23 8 21 c14 37 39 227
39 291 0 184 -71 420 -156 521 -26 31 -27 54 -2 34 7 -5 42 -20 78 -33 215
-76 396 -196 632 -417 32 -30 66 -53 78 -53 27 0 80 52 80 78 0 54 -260 285
-444 394 -221 131 -407 192 -668 222 -145 17 -211 18 -293 6z m1373 -596 c-4
-3 -12 5 -18 18 -12 22 -12 22 6 6 10 -10 15 -20 12 -24z m-238 -1968 c0 -11
-19 -15 -25 -6 -3 5 1 10 9 10 9 0 16 -2 16 -4z"/>
<path d="M2670 3109 c0 -5 5 -7 10 -4 6 3 10 8 10 11 0 2 -4 4 -10 4 -5 0 -10
-5 -10 -11z"/>
<path d="M1430 3100 c-9 -6 -10 -10 -3 -10 6 0 15 5 18 10 8 12 4 12 -15 0z"/>
<path d="M1948 3093 c7 -3 16 -2 19 1 4 3 -2 6 -13 5 -11 0 -14 -3 -6 -6z"/>
<path d="M2167 3033 c-3 -5 5 -8 18 -8 13 0 21 3 18 8 -2 4 -10 7 -18 7 -8 0
-16 -3 -18 -7z"/>
<path d="M1478 3004 c-53 -14 -131 -43 -173 -64 -41 -22 -82 -40 -90 -40 -8 0
-15 -7 -15 -15 0 -8 -6 -15 -13 -15 -8 0 -22 -9 -31 -19 -10 -11 -25 -17 -34
-14 -11 5 -13 3 -7 -7 6 -10 4 -12 -8 -7 -9 3 -16 2 -14 -3 2 -9 -153 -165
-164 -165 -4 0 -11 -4 -16 -9 -5 -5 -3 -6 5 -2 6 4 12 4 12 1 0 -9 -47 -54
-52 -49 -3 2 -5 -2 -5 -8 0 -7 -22 -46 -48 -85 -41 -62 -51 -71 -64 -61 -13
10 -14 10 -4 -2 15 -17 17 -34 3 -25 -5 3 -7 0 -4 -9 3 -8 -10 -42 -30 -76
-20 -34 -36 -69 -36 -80 0 -10 -3 -20 -7 -22 -8 -3 -62 -153 -67 -182 -1 -8
-5 -19 -9 -22 -4 -4 -7 -18 -7 -31 0 -14 -4 -32 -9 -42 -19 -35 -28 -297 -12
-350 6 -18 10 -36 9 -40 -1 -3 8 -39 21 -79 23 -76 67 -160 104 -200 12 -13
20 -27 17 -30 -3 -4 4 -7 15 -7 23 0 57 24 49 36 -5 8 50 181 80 252 10 23 21
35 28 31 7 -4 8 -3 4 4 -8 13 28 85 74 152 24 34 30 39 26 20 -3 -14 -3 -19 0
-12 3 6 10 9 16 6 7 -4 7 0 0 12 -12 22 -10 25 63 108 26 31 53 56 58 56 5 0
5 -6 -1 -13 -8 -10 -6 -13 8 -13 14 0 16 4 9 17 -9 18 12 45 24 32 4 -3 7 0 7
8 0 14 62 69 77 69 4 0 1 -5 -7 -11 -13 -9 -13 -10 0 -6 8 2 14 11 12 19 -2
14 18 29 43 33 6 0 9 7 7 14 -2 8 3 11 12 8 9 -4 15 -3 13 2 -1 4 26 35 59 69
34 33 76 81 94 106 18 25 37 43 43 39 6 -3 7 -1 3 5 -11 18 4 37 16 21 7 -10
8 -9 4 5 -4 11 -3 22 2 25 13 9 87 164 117 246 31 82 62 222 71 317 8 78 0 93
-55 107 -82 20 -126 19 -223 -5z m246 -19 c17 -7 18 -16 12 -84 -23 -255 -136
-521 -298 -704 -31 -35 -111 -108 -176 -161 -147 -118 -227 -202 -304 -320
-85 -129 -138 -252 -179 -410 l-13 -50 -38 45 c-89 101 -133 249 -132 439 1
194 51 386 158 599 158 315 438 568 710 642 72 19 216 21 260 4z"/>
<path d="M1007 2609 c7 -7 15 -10 18 -7 3 3 -2 9 -12 12 -14 6 -15 5 -6 -5z"/>
<path d="M1150 2406 c0 -9 5 -16 10 -16 6 0 10 4 10 9 0 6 -4 13 -10 16 -5 3
-10 -1 -10 -9z"/>
<path d="M975 2280 c-3 -5 -1 -10 4 -10 6 0 11 5 11 10 0 6 -2 10 -4 10 -3 0
-8 -4 -11 -10z"/>
<path d="M1112 1986 c7 -8 15 -12 17 -11 5 6 -10 25 -20 25 -5 0 -4 -6 3 -14z"/>
<path d="M980 1866 c0 -2 8 -10 18 -17 15 -13 16 -12 3 4 -13 16 -21 21 -21
13z"/>
<path d="M2360 2956 c0 -2 7 -7 16 -10 8 -3 12 -2 9 4 -6 10 -25 14 -25 6z"/>
<path d="M1875 2906 c-18 -20 -37 -68 -24 -60 9 5 10 0 5 -17 -3 -13 -9 -44
-12 -69 -3 -25 -8 -52 -11 -60 -8 -21 -8 -20 -17 -67 -4 -24 -12 -45 -16 -48
-5 -3 -7 -12 -3 -20 3 -8 0 -15 -7 -15 -7 0 -10 -6 -7 -13 6 -17 -28 -97 -42
-97 -6 0 -8 -8 -5 -17 5 -15 3 -15 -10 1 -9 11 -16 15 -16 10 0 -6 5 -15 11
-21 18 -18 -57 -161 -81 -155 -6 1 -9 -2 -5 -7 3 -6 -6 -29 -21 -51 -17 -26
-30 -37 -34 -29 -6 8 -9 8 -14 0 -4 -6 -2 -11 4 -11 6 0 8 -5 5 -10 -4 -6 -11
-7 -17 -4 -7 5 -9 1 -5 -9 4 -11 2 -14 -9 -10 -10 4 -12 0 -7 -13 5 -13 3 -15
-8 -9 -8 4 -11 5 -8 1 10 -10 -72 -87 -84 -79 -6 3 -7 1 -4 -4 7 -10 -20 -28
-35 -25 -5 1 -7 -1 -7 -6 3 -20 -3 -23 -18 -11 -16 12 -17 12 -5 -2 10 -13 9
-19 -3 -29 -8 -7 -15 -10 -15 -8 0 3 -21 -14 -47 -38 -35 -33 -49 -41 -56 -31
-6 8 -7 7 -4 -5 3 -9 -3 -24 -15 -35 -12 -10 -18 -12 -14 -5 4 6 5 12 1 12 -3
0 -10 -11 -15 -25 -5 -13 -15 -23 -22 -21 -7 1 -10 1 -5 -1 14 -8 -4 -22 -21
-17 -14 5 -15 4 -2 -5 8 -5 11 -13 7 -17 -3 -4 -15 -1 -24 7 -16 13 -17 12 -4
-3 11 -14 11 -21 1 -33 -6 -8 -17 -13 -23 -12 -5 1 -13 -9 -17 -23 -4 -15 -13
-24 -23 -24 -9 1 -17 -2 -17 -7 0 -5 5 -9 11 -9 8 0 8 -5 -1 -15 -7 -8 -17
-12 -22 -9 -6 4 -8 -2 -3 -15 3 -12 2 -21 -4 -21 -5 0 -13 -9 -16 -20 -4 -11
-11 -17 -17 -14 -7 4 -8 2 -4 -5 8 -13 -14 -71 -27 -71 -5 0 -6 -4 -3 -8 2 -4
-3 -26 -13 -47 -10 -22 -24 -65 -31 -95 -7 -30 -20 -66 -29 -80 -13 -20 -14
-23 -1 -15 13 7 13 6 2 -7 -10 -13 -11 -22 -2 -37 26 -50 151 -65 285 -35 39
9 80 17 92 18 11 0 19 4 17 7 -2 4 18 14 44 24 26 10 84 42 130 72 52 34 89
53 99 49 13 -5 14 -4 3 9 -7 8 -8 15 -2 15 5 0 27 16 48 35 21 20 44 33 51 31
8 -3 10 1 6 11 -4 10 -2 14 4 10 5 -3 9 2 9 11 0 70 5 112 13 107 5 -3 13 0
17 6 4 8 3 9 -4 5 -7 -4 -12 -4 -12 -1 0 16 33 118 46 143 8 15 14 30 14 34 0
15 52 83 62 80 5 -1 7 2 3 8 -8 13 36 72 50 66 15 -5 33 6 37 23 6 28 35 48
66 46 17 -1 29 2 26 7 -3 5 -15 6 -27 3 -20 -6 -20 -5 3 14 14 11 32 23 41 26
18 6 34 39 44 93 4 17 10 32 13 32 4 0 7 10 8 23 0 12 6 71 12 131 9 80 9 133
1 205 -6 53 -12 106 -13 118 0 13 -4 23 -8 23 -8 0 -22 56 -22 91 0 15 -5 25
-11 23 -12 -5 -48 50 -39 59 3 3 1 14 -6 24 -9 16 -10 15 -5 -7 l7 -25 -16 22
c-9 12 -14 27 -13 35 2 7 2 10 0 5 -8 -14 -22 4 -17 21 5 14 4 15 -5 2 -10
-14 -16 -7 -11 15 1 6 -2 7 -5 3 -4 -4 -15 -3 -24 1 -10 6 -20 5 -26 -3z m63
-58 c53 -70 87 -140 114 -235 29 -101 31 -320 4 -428 -36 -148 -31 -139 -101
-185 -96 -62 -168 -145 -219 -253 -45 -93 -76 -198 -76 -254 0 -26 -12 -42
-72 -95 -40 -36 -95 -79 -121 -97 -71 -48 -204 -108 -278 -126 -75 -17 -188
-19 -243 -4 -38 11 -38 11 -32 52 12 72 75 249 118 327 76 139 139 210 345
387 75 65 153 135 173 157 112 122 212 296 265 460 30 95 65 260 65 310 0 20
4 36 9 36 5 0 27 -24 49 -52z m-48 -933 c-7 -9 -15 -13 -17 -11 -7 7 7 26 19
26 6 0 6 -6 -2 -15z"/>
<path d="M1930 2695 c0 -8 2 -15 4 -15 2 0 6 7 10 15 3 8 1 15 -4 15 -6 0 -10
-7 -10 -15z"/>
<path d="M2021 2384 c0 -11 3 -14 6 -6 3 7 2 16 -1 19 -3 4 -6 -2 -5 -13z"/>
<path d="M2011 2264 c0 -11 3 -14 6 -6 3 7 2 16 -1 19 -3 4 -6 -2 -5 -13z"/>
<path d="M1805 1939 c-4 -6 -5 -12 -2 -15 2 -3 7 2 10 11 7 17 1 20 -8 4z"/>
<path d="M1425 1930 c3 -5 8 -10 11 -10 2 0 4 5 4 10 0 6 -5 10 -11 10 -5 0
-7 -4 -4 -10z"/>
<path d="M1760 1896 c0 -2 7 -9 15 -16 9 -7 15 -8 15 -2 0 5 -7 12 -15 16 -8
3 -15 4 -15 2z"/>
<path d="M1285 1810 c-3 -6 1 -7 9 -4 18 7 21 14 7 14 -6 0 -13 -4 -16 -10z"/>
<path d="M1685 1789 c-4 -6 -4 -13 -1 -16 3 -4 6 -1 6 6 0 7 5 9 12 5 7 -4 8
-3 4 4 -9 15 -13 15 -21 1z"/>
<path d="M1367 1315 c-4 -8 -3 -16 1 -19 4 -3 9 4 9 15 2 23 -3 25 -10 4z"/>
<path d="M455 2790 c3 -5 8 -10 11 -10 2 0 4 5 4 10 0 6 -5 10 -11 10 -5 0 -7
-4 -4 -10z"/>
<path d="M974 2728 l-19 -23 23 19 c21 18 27 26 19 26 -2 0 -12 -10 -23 -22z"/>
<path d="M2810 2636 c0 -2 8 -10 18 -17 15 -13 16 -12 3 4 -13 16 -21 21 -21
13z"/>
<path d="M2570 2626 c0 -2 7 -7 16 -10 8 -3 12 -2 9 4 -6 10 -25 14 -25 6z"/>
<path d="M806 2587 c3 -10 9 -15 12 -12 3 3 0 11 -7 18 -10 9 -11 8 -5 -6z"/>
<path d="M2644 2549 c-3 -6 -2 -15 3 -20 5 -5 9 -1 9 11 0 23 -2 24 -12 9z"/>
<path d="M1622 2400 c-7 -11 -8 -20 -3 -20 9 0 24 30 18 36 -1 2 -8 -6 -15
-16z"/>
<path d="M1685 2339 c-4 -6 -5 -12 -2 -15 2 -3 7 2 10 11 7 17 1 20 -8 4z"/>
<path d="M2711 2324 c0 -11 3 -14 6 -6 3 7 2 16 -1 19 -3 4 -6 -2 -5 -13z"/>
<path d="M1536 2187 c3 -10 9 -15 12 -12 3 3 0 11 -7 18 -10 9 -11 8 -5 -6z"/>
<path d="M3276 2185 c-9 -26 -7 -32 5 -12 6 10 9 21 6 23 -2 3 -7 -2 -11 -11z"/>
<path d="M1419 2133 c-13 -16 -12 -17 4 -4 9 7 17 15 17 17 0 8 -8 3 -21 -13z"/>
<path d="M2508 2063 c7 -3 16 -2 19 1 4 3 -2 6 -13 5 -11 0 -14 -3 -6 -6z"/>
<path d="M406 2043 c-6 -14 -5 -15 5 -6 7 7 10 15 7 18 -3 3 -9 -2 -12 -12z"/>
<path d="M585 2050 c-3 -5 -1 -10 4 -10 6 0 11 5 11 10 0 6 -2 10 -4 10 -3 0
-8 -4 -11 -10z"/>
<path d="M2050 2051 c0 -6 4 -13 10 -16 6 -3 7 1 4 9 -7 18 -14 21 -14 7z"/>
<path d="M3165 2010 c3 -5 8 -10 11 -10 2 0 4 5 4 10 0 6 -5 10 -11 10 -5 0
-7 -4 -4 -10z"/>
<path d="M2330 1993 c-54 -8 -252 -61 -235 -63 6 0 -8 -9 -30 -20 -56 -27 -75
-41 -103 -73 -13 -15 -28 -24 -33 -21 -5 3 -8 0 -7 -8 2 -7 -3 -12 -10 -10 -6
1 -11 -1 -10 -5 5 -14 -36 -72 -45 -66 -6 3 -7 1 -4 -4 4 -6 -3 -33 -15 -59
-53 -120 -66 -286 -29 -378 6 -16 10 -31 7 -33 -2 -3 7 -21 20 -40 13 -20 24
-40 24 -45 0 -20 107 -111 158 -134 54 -25 167 -45 212 -39 45 7 162 44 178
57 9 7 28 23 41 35 14 12 28 20 33 17 5 -3 7 -2 6 3 -4 14 23 54 32 48 6 -4 7
2 3 12 -6 16 -5 17 12 3 17 -14 18 -14 7 7 -9 16 -9 22 0 25 15 5 18 193 4
247 -5 23 -5 31 2 27 6 -3 13 -2 17 3 3 6 -3 8 -14 6 -23 -4 -46 19 -35 36 4
7 3 9 -3 6 -5 -3 -29 7 -54 24 -24 16 -52 29 -61 29 -10 0 -18 4 -18 8 0 12
-59 3 -99 -15 -33 -15 -110 -83 -94 -83 5 0 7 -18 5 -40 -4 -35 0 -44 29 -70
17 -17 38 -29 45 -26 7 3 23 -4 36 -15 21 -17 21 -18 3 -13 -19 6 -19 6 -1 -8
27 -21 16 -51 -24 -64 -19 -7 -39 -8 -45 -4 -5 4 -25 11 -43 15 -19 4 -30 11
-26 17 4 6 2 8 -4 4 -6 -3 -24 11 -42 31 -23 28 -29 44 -25 63 4 20 3 22 -5
10 -8 -11 -10 4 -7 60 2 56 9 85 26 113 13 21 26 36 29 33 3 -3 -1 -12 -8 -21
-8 -10 -9 -15 -1 -15 12 0 12 1 16 39 3 30 43 62 70 56 11 -3 14 -2 7 1 -10 5
-7 10 9 22 35 24 168 26 229 3 58 -22 115 -67 115 -90 0 -9 8 -15 18 -15 10 1
17 -5 17 -17 0 -10 9 -28 21 -40 11 -11 18 -27 15 -35 -4 -10 -2 -12 6 -8 8 5
9 2 4 -11 -4 -10 -2 -21 3 -24 10 -7 23 -116 14 -124 -3 -3 -7 -31 -9 -63 -2
-32 -8 -60 -13 -63 -5 -3 -12 -21 -16 -38 -3 -18 -10 -33 -15 -33 -5 0 -12
-10 -16 -22 -10 -32 -112 -131 -126 -122 -7 5 -8 3 -3 -6 6 -10 4 -12 -8 -7
-10 4 -16 2 -14 -6 1 -7 -7 -12 -18 -12 -11 0 -28 -8 -39 -19 -13 -13 -27 -16
-47 -12 -15 3 -31 1 -34 -4 -3 -6 2 -7 12 -4 15 5 15 4 3 -4 -8 -6 -27 -8 -44
-5 -18 4 -27 2 -23 -4 8 -13 -166 -8 -212 6 -57 18 -150 64 -145 72 2 4 -1 11
-7 15 -8 4 -9 3 -5 -4 10 -17 -9 -15 -23 1 -6 8 -7 18 -3 22 4 5 2 6 -3 3 -6
-4 -26 10 -45 30 -19 20 -25 28 -12 18 37 -32 25 -11 -23 37 -41 42 -61 78
-34 61 8 -4 8 0 0 15 -7 11 -16 21 -22 21 -6 0 -8 10 -4 23 4 15 3 18 -3 9 -7
-10 -11 -5 -16 21 -10 54 -39 54 -98 0 -14 -14 -31 -22 -37 -18 -7 4 -10 1 -9
-7 2 -7 -5 -12 -14 -12 -10 1 -16 -2 -13 -6 7 -11 -64 -52 -77 -44 -6 4 -8 3
-5 -3 7 -12 -49 -46 -63 -38 -6 3 -10 1 -10 -5 0 -6 -4 -8 -10 -5 -5 3 -10 2
-10 -3 0 -13 -127 -55 -145 -48 -9 3 -13 2 -10 -4 3 -6 -4 -11 -17 -11 -13 -1
-36 -3 -53 -5 -110 -12 -218 1 -254 29 -12 9 -13 9 -7 0 4 -7 3 -13 -2 -13 -6
0 -12 7 -16 15 -3 8 -11 15 -18 15 -9 0 -8 -3 2 -10 13 -8 8 -14 -10 -12 -3 0
-6 -8 -6 -19 0 -10 4 -19 9 -19 4 0 5 -5 1 -12 -4 -7 -3 -8 4 -4 7 4 12 1 12
-8 0 -8 14 -24 30 -36 17 -12 28 -25 25 -29 -2 -4 11 -20 30 -36 19 -15 32
-31 29 -36 -3 -5 -2 -9 3 -7 12 3 117 -99 107 -104 -5 -3 -3 -3 5 -1 18 5 42
-17 34 -31 -3 -6 -3 -8 2 -4 11 11 47 -11 39 -24 -5 -7 -2 -8 6 -3 8 5 18 1
27 -10 7 -11 13 -16 13 -12 0 5 6 2 14 -5 8 -7 11 -17 8 -22 -3 -5 0 -6 5 -3
6 4 45 -13 87 -37 42 -24 73 -46 69 -48 -4 -3 -2 -3 5 -1 7 1 37 -8 65 -21 29
-14 65 -28 80 -32 22 -5 26 -9 15 -16 -10 -8 -10 -9 3 -5 8 3 51 -4 95 -14
175 -42 379 -34 569 23 81 25 261 108 322 150 23 15 46 28 52 28 6 0 11 5 11
11 0 6 7 9 15 5 8 -3 14 0 12 7 -1 7 5 11 13 9 8 -2 12 0 7 4 -9 10 31 53 47
50 6 -2 8 -1 3 2 -10 5 73 98 85 94 5 -1 7 2 4 7 -6 9 8 33 52 97 13 19 13 19
7 0 -5 -16 -3 -17 10 -6 12 10 13 15 4 20 -6 4 -8 13 -5 19 4 6 12 8 18 5 6
-4 8 -2 4 4 -3 6 5 44 18 84 13 40 28 94 31 120 4 26 10 46 14 44 3 -2 3 60 0
137 -6 146 -26 244 -61 302 -20 33 -23 49 -8 40 5 -3 2 7 -8 24 -19 33 -30 35
-12 2 18 -35 3 -23 -22 17 -12 20 -22 40 -20 45 1 4 -4 6 -10 5 -7 -2 -13 5
-13 14 0 9 -4 20 -9 25 -5 4 -6 3 -2 -4 4 -7 3 -13 -2 -13 -15 0 -22 26 -11
39 6 8 5 8 -3 1 -16 -13 -29 -13 -25 1 1 6 -6 13 -16 14 -10 2 -27 11 -36 19
-10 9 -23 16 -29 16 -6 0 -14 5 -18 12 -4 6 -3 8 3 5 5 -3 10 0 10 8 0 11 -4
12 -14 4 -10 -9 -28 -6 -71 9 -31 11 -84 24 -117 27 -33 4 -67 8 -75 9 -8 2
-26 1 -40 -1z m231 -57 c231 -80 359 -282 361 -571 3 -400 -248 -711 -692
-858 -133 -44 -187 -52 -350 -51 -134 1 -169 5 -255 27 -186 49 -397 170 -573
327 -68 60 -217 228 -210 235 3 3 18 -2 34 -10 74 -36 231 -37 368 0 132 35
307 129 398 213 15 14 29 24 31 21 2 -2 12 -26 22 -54 10 -27 34 -77 54 -110
146 -249 500 -320 747 -150 208 143 265 436 122 629 -34 46 -56 64 -117 94
-67 33 -83 37 -150 37 -161 -1 -276 -100 -288 -249 -7 -82 9 -128 61 -181 87
-86 216 -80 216 12 0 38 -29 73 -60 73 -33 0 -70 44 -70 83 0 71 62 112 158
105 71 -5 111 -31 148 -94 23 -38 27 -57 27 -122 0 -103 -27 -166 -99 -231
-73 -67 -145 -94 -249 -95 -185 -2 -308 94 -366 285 -65 213 48 492 239 588
68 34 140 60 202 71 74 15 214 3 291 -24z m34 -346 c3 -5 1 -10 -4 -10 -6 0
-11 5 -11 10 0 6 2 10 4 10 3 0 8 -4 11 -10z"/>
<path d="M2450 1926 c0 -2 9 -6 20 -9 11 -3 18 -1 14 4 -5 9 -34 13 -34 5z"/>
<path d="M2095 1680 c-3 -5 -1 -10 4 -10 6 0 11 5 11 10 0 6 -2 10 -4 10 -3 0
-8 -4 -11 -10z"/>
<path d="M2816 1652 c-2 -4 -1 -14 4 -22 7 -11 9 -9 7 8 -1 24 -3 26 -11 14z"/>
<path d="M1920 1601 c0 -5 5 -13 10 -16 6 -3 10 -2 10 4 0 5 -4 13 -10 16 -5
3 -10 2 -10 -4z"/>
<path d="M2695 1529 c-4 -6 -5 -12 -2 -15 2 -3 7 2 10 11 7 17 1 20 -8 4z"/>
<path d="M2001 1514 c0 -11 3 -14 6 -6 3 7 2 16 -1 19 -3 4 -6 -2 -5 -13z"/>
<path d="M2280 1500 c-8 -5 -10 -10 -5 -10 6 0 17 5 25 10 8 5 11 10 5 10 -5
0 -17 -5 -25 -10z"/>
<path d="M2701 1143 c-1 -6 -4 -20 -7 -30 -5 -17 -5 -17 6 0 6 10 9 23 6 30
-3 9 -5 9 -5 0z"/>
<path d="M2610 1015 c0 -2 6 -8 13 -14 10 -8 14 -7 14 2 0 8 -6 14 -14 14 -7
0 -13 -1 -13 -2z"/>
<path d="M1766 997 c3 -10 9 -15 12 -12 3 3 0 11 -7 18 -10 9 -11 8 -5 -6z"/>
<path d="M1926 861 c3 -3 19 -6 35 -7 17 -1 28 1 25 4 -3 3 -19 6 -36 7 -17 1
-28 -1 -24 -4z"/>
<path d="M2510 770 c0 -5 5 -10 11 -10 5 0 7 5 4 10 -3 6 -8 10 -11 10 -2 0
-4 -4 -4 -10z"/>
<path d="M1351 714 c0 -11 3 -14 6 -6 3 7 2 16 -1 19 -3 4 -6 -2 -5 -13z"/>
<path d="M1089 1833 c-13 -16 -12 -17 4 -4 9 7 17 15 17 17 0 8 -8 3 -21 -13z"/>
<path d="M2990 1819 c0 -5 5 -7 10 -4 6 3 10 8 10 11 0 2 -4 4 -10 4 -5 0 -10
-5 -10 -11z"/>
<path d="M2425 1670 c27 -12 43 -12 25 0 -8 5 -22 9 -30 9 -10 0 -8 -3 5 -9z"/>
<path d="M298 1643 c7 -3 16 -2 19 1 4 3 -2 6 -13 5 -11 0 -14 -3 -6 -6z"/>
<path d="M157 1559 c7 -7 15 -10 18 -7 3 3 -2 9 -12 12 -14 6 -15 5 -6 -5z"/>
<path d="M2096 1505 c-9 -26 -7 -32 5 -12 6 10 9 21 6 23 -2 3 -7 -2 -11 -11z"/>
<path d="M3441 1444 c0 -11 3 -14 6 -6 3 7 2 16 -1 19 -3 4 -6 -2 -5 -13z"/>
<path d="M536 1367 c3 -10 9 -15 12 -12 3 3 0 11 -7 18 -10 9 -11 8 -5 -6z"/>
<path d="M3480 1370 c0 -5 5 -10 10 -10 6 0 10 5 10 10 0 6 -4 10 -10 10 -5 0
-10 -4 -10 -10z"/>
<path d="M649 1345 c17 -33 31 -51 31 -40 0 6 -10 21 -21 35 -13 17 -17 18
-10 5z"/>
<path d="M1499 1283 c-13 -16 -12 -17 4 -4 9 7 17 15 17 17 0 8 -8 3 -21 -13z"/>
<path d="M2290 1289 c0 -5 5 -7 10 -4 6 3 10 8 10 11 0 2 -4 4 -10 4 -5 0 -10
-5 -10 -11z"/>
<path d="M614 1229 c-3 -6 -2 -15 3 -20 5 -5 9 -1 9 11 0 23 -2 24 -12 9z"/>
<path d="M610 1185 c0 -5 10 -21 21 -35 13 -17 17 -18 10 -5 -17 33 -31 51
-31 40z"/>
<path d="M2932 1155 c0 -16 2 -22 5 -12 2 9 2 23 0 30 -3 6 -5 -1 -5 -18z"/>
<path d="M2615 1149 c-4 -6 -5 -12 -2 -15 2 -3 7 2 10 11 7 17 1 20 -8 4z"/>
<path d="M2507 1133 c-4 -3 -7 -11 -7 -17 0 -6 5 -5 12 2 6 6 9 14 7 17 -3 3
-9 2 -12 -2z"/>
<path d="M1028 1113 c7 -3 16 -2 19 1 4 3 -2 6 -13 5 -11 0 -14 -3 -6 -6z"/>
<path d="M2986 1083 c-6 -14 -5 -15 5 -6 7 7 10 15 7 18 -3 3 -9 -2 -12 -12z"/>
<path d="M556 1078 c3 -5 10 -6 15 -3 13 9 11 12 -6 12 -8 0 -12 -4 -9 -9z"/>
<path d="M2415 1040 c-3 -5 -2 -10 4 -10 5 0 13 5 16 10 3 6 2 10 -4 10 -5 0
-13 -4 -16 -10z"/>
<path d="M2330 1010 c-9 -6 -10 -10 -3 -10 6 0 15 5 18 10 8 12 4 12 -15 0z"/>
<path d="M2430 1016 c0 -2 7 -7 16 -10 8 -3 12 -2 9 4 -6 10 -25 14 -25 6z"/>
<path d="M773 972 c-1 -22 0 -24 9 -8 6 10 6 22 2 26 -5 5 -10 -3 -11 -18z"/>
<path d="M2751 803 c-7 -8 -11 -16 -8 -19 2 -2 10 2 17 11 17 20 9 27 -9 8z"/>
<path d="M936 748 c3 -5 10 -6 15 -3 13 9 11 12 -6 12 -8 0 -12 -4 -9 -9z"/>
<path d="M580 590 c0 -5 7 -10 15 -10 8 0 15 5 15 10 0 6 -7 10 -15 10 -8 0
-15 -4 -15 -10z"/>
<path d="M975 570 c3 -5 8 -10 11 -10 2 0 4 5 4 10 0 6 -5 10 -11 10 -5 0 -7
-4 -4 -10z"/>
<path d="M850 549 c0 -5 5 -7 10 -4 6 3 10 8 10 11 0 2 -4 4 -10 4 -5 0 -10
-5 -10 -11z"/>
<path d="M1045 520 c-3 -6 1 -7 9 -4 18 7 21 14 7 14 -6 0 -13 -4 -16 -10z"/>
<path d="M1340 500 c-9 -6 -10 -10 -3 -10 6 0 15 5 18 10 8 12 4 12 -15 0z"/>
<path d="M81 484 c0 -11 3 -14 6 -6 3 7 2 16 -1 19 -3 4 -6 -2 -5 -13z"/>
<path d="M130 409 c0 -5 5 -7 10 -4 6 3 10 8 10 11 0 2 -4 4 -10 4 -5 0 -10
-5 -10 -11z"/>
<path d="M3040 360 c0 -5 5 -10 11 -10 5 0 7 5 4 10 -3 6 -8 10 -11 10 -2 0
-4 -4 -4 -10z"/>
<path d="M2235 300 c-3 -6 1 -7 9 -4 18 7 21 14 7 14 -6 0 -13 -4 -16 -10z"/>
<path d="M1527 160 c3 -11 9 -20 15 -20 5 0 4 9 -2 20 -6 11 -12 20 -14 20 -2
0 -2 -9 1 -20z"/>
<path d="M676 157 c3 -10 9 -15 12 -12 3 3 0 11 -7 18 -10 9 -11 8 -5 -6z"/>
<path d="M731 74 c0 -11 3 -14 6 -6 3 7 2 16 -1 19 -3 4 -6 -2 -5 -13z"/>
</g>
</svg>
